<svg xmlns="http://www.w3.org/2000/svg" width="430" height="152" viewBox="0 0 430 152" role="img" fill="none">
  <defs>
    <linearGradient id="stroke" x1="0" y1="0" x2="1" y2="1">
      <stop offset="0%" stop-color="#22d3ee" stop-opacity="0.6"/>
      <stop offset="45%" stop-color="#22d3ee" stop-opacity="0.08"/>
      <stop offset="100%" stop-color="#818cf8" stop-opacity="0.5"/>
    </linearGradient>
    <radialGradient id="wash" cx="12%" cy="0%" r="85%">
      <stop offset="0%" stop-color="#22d3ee" stop-opacity="0.17"/>
      <stop offset="100%" stop-color="#22d3ee" stop-opacity="0"/>
    </radialGradient>
    <radialGradient id="wash2" cx="92%" cy="100%" r="80%">
      <stop offset="0%" stop-color="#818cf8" stop-opacity="0.17"/>
      <stop offset="100%" stop-color="#818cf8" stop-opacity="0"/>
    </radialGradient>
    <linearGradient id="accent" x1="0" y1="0" x2="1" y2="0">
      <stop offset="0%" stop-color="#22d3ee"/>
      <stop offset="55%" stop-color="#818cf8"/>
      <stop offset="100%" stop-color="#34d399"/>
    </linearGradient>
    <linearGradient id="duo" x1="0" y1="0" x2="1" y2="0">
      <stop offset="0%" stop-color="#67e8f9"/>
      <stop offset="100%" stop-color="#a5b4fc"/>
    </linearGradient>
    <clipPath id="cardClip"><rect width="430" height="152" rx="16"/></clipPath>
  </defs>
  <rect width="430" height="152" rx="16" fill="#090e1a"/>
  <rect width="430" height="152" rx="16" fill="url(#wash)"/>
  <rect width="430" height="152" rx="16" fill="url(#wash2)"/>
  <rect x="0.75" y="0.75" width="428.5" height="150.5" rx="15.25" stroke="url(#stroke)" stroke-width="1.5"/>
  <text x="412" y="122" text-anchor="end" font-family="-apple-system,BlinkMacSystemFont,Segoe UI,Helvetica,Arial,sans-serif" font-size="64" font-weight="800" letter-spacing="-2" fill="#22d3ee" opacity="0.07">MS</text>
  <rect x="24" y="24" width="87" height="20" rx="10" fill="#22d3ee" opacity="0.1"/>
  <rect x="24.5" y="24.5" width="86" height="19" rx="9.5" stroke="#22d3ee" stroke-opacity="0.32"/>
  <text x="67.5" y="37.5" text-anchor="middle" font-family="-apple-system,BlinkMacSystemFont,Segoe UI,Helvetica,Arial,sans-serif" font-size="9.5" font-weight="700" letter-spacing="1" fill="#67e8f9">FULL-STACK</text>
  <g stroke="#67e8f9" stroke-width="1.8" stroke-linecap="round" stroke-linejoin="round">
    <path d="M390 38 L402 26 M393 26 H402 V35"/>
  </g>
  <text x="24" y="72" font-family="-apple-system,BlinkMacSystemFont,Segoe UI,Helvetica,Arial,sans-serif" font-size="17.5" font-weight="700" letter-spacing="-0.4" fill="#e9eef7">MediCare Sync</text>
  <text x="24" y="93" font-family="-apple-system,BlinkMacSystemFont,Segoe UI,Helvetica,Arial,sans-serif" font-size="11.5" fill="#aebbd3">Clinic platform where concurrent bookings can never collide.</text>
  <text x="24" y="110" font-family="ui-monospace,SFMono-Regular,Menlo,Consolas,monospace" font-size="10" fill="#8494b0">63 REST endpoints · 15 Prisma models · 4 roles</text>
  <rect x="24" y="120" width="58" height="19" rx="9.5" fill="#141c30"/>
  <rect x="24.5" y="120.5" width="57" height="18" rx="9" stroke="#20294a"/>
  <text x="53" y="133" text-anchor="middle" font-family="ui-monospace,SFMono-Regular,Menlo,Consolas,monospace" font-size="9.5" fill="#aebbd3">Express</text>
  <rect x="89" y="120" width="46" height="19" rx="9.5" fill="#141c30"/>
  <rect x="89.5" y="120.5" width="45" height="18" rx="9" stroke="#20294a"/>
  <text x="112" y="133" text-anchor="middle" font-family="ui-monospace,SFMono-Regular,Menlo,Consolas,monospace" font-size="9.5" fill="#aebbd3">React</text>
  <rect x="142" y="120" width="58" height="19" rx="9.5" fill="#141c30"/>
  <rect x="142.5" y="120.5" width="57" height="18" rx="9" stroke="#20294a"/>
  <text x="171" y="133" text-anchor="middle" font-family="ui-monospace,SFMono-Regular,Menlo,Consolas,monospace" font-size="9.5" fill="#aebbd3">MongoDB</text>
  <rect x="207" y="120" width="52" height="19" rx="9.5" fill="#141c30"/>
  <rect x="207.5" y="120.5" width="51" height="18" rx="9" stroke="#20294a"/>
  <text x="233" y="133" text-anchor="middle" font-family="ui-monospace,SFMono-Regular,Menlo,Consolas,monospace" font-size="9.5" fill="#aebbd3">Prisma</text>
  <rect x="266" y="120" width="34" height="19" rx="9.5" fill="#141c30"/>
  <rect x="266.5" y="120.5" width="33" height="18" rx="9" stroke="#20294a"/>
  <text x="283" y="133" text-anchor="middle" font-family="ui-monospace,SFMono-Regular,Menlo,Consolas,monospace" font-size="9.5" fill="#aebbd3">JWT</text>
</svg>
