<svg xmlns="http://www.w3.org/2000/svg" width="430" height="250" viewBox="0 0 430 250" role="img" fill="none">
  <defs>
    <linearGradient id="stroke" x1="0" y1="0" x2="1" y2="1">
      <stop offset="0%" stop-color="#22d3ee" stop-opacity="0.6"/>
      <stop offset="45%" stop-color="#22d3ee" stop-opacity="0.08"/>
      <stop offset="100%" stop-color="#818cf8" stop-opacity="0.5"/>
    </linearGradient>
    <radialGradient id="wash" cx="12%" cy="0%" r="85%">
      <stop offset="0%" stop-color="#22d3ee" stop-opacity="0.17"/>
      <stop offset="100%" stop-color="#22d3ee" stop-opacity="0"/>
    </radialGradient>
    <radialGradient id="wash2" cx="92%" cy="100%" r="80%">
      <stop offset="0%" stop-color="#818cf8" stop-opacity="0.17"/>
      <stop offset="100%" stop-color="#818cf8" stop-opacity="0"/>
    </radialGradient>
    <linearGradient id="accent" x1="0" y1="0" x2="1" y2="0">
      <stop offset="0%" stop-color="#22d3ee"/>
      <stop offset="55%" stop-color="#818cf8"/>
      <stop offset="100%" stop-color="#34d399"/>
    </linearGradient>
    <linearGradient id="duo" x1="0" y1="0" x2="1" y2="0">
      <stop offset="0%" stop-color="#67e8f9"/>
      <stop offset="100%" stop-color="#a5b4fc"/>
    </linearGradient>
    <clipPath id="cardClip"><rect width="430" height="250" rx="16"/></clipPath>
  </defs>
  <rect width="430" height="250" rx="16" fill="#090e1a"/>
  <rect width="430" height="250" rx="16" fill="url(#wash)"/>
  <rect width="430" height="250" rx="16" fill="url(#wash2)"/>
  <rect x="0.75" y="0.75" width="428.5" height="248.5" rx="15.25" stroke="url(#stroke)" stroke-width="1.5"/>
  <rect x="30" y="38" width="16" height="2" rx="1" fill="url(#accent)"/>
  <text x="54" y="42" font-family="-apple-system,BlinkMacSystemFont,Segoe UI,Helvetica,Arial,sans-serif" font-size="10.5" font-weight="700" letter-spacing="2.2" fill="#67e8f9">BY THE NUMBERS</text>
  <text x="30" y="64" font-family="-apple-system,BlinkMacSystemFont,Segoe UI,Helvetica,Arial,sans-serif" font-size="12" fill="#aebbd3">Building publicly for 2.3 years</text>
  <text x="30" y="98" font-family="ui-monospace,SFMono-Regular,Menlo,Consolas,monospace" font-size="23" font-weight="700" fill="#67e8f9">348<animate attributeName="opacity" values="0.25;1" dur="0.5s" begin="0.00s" fill="freeze"/></text>
  <text x="30" y="114" font-family="-apple-system,BlinkMacSystemFont,Segoe UI,Helvetica,Arial,sans-serif" font-size="9.5" letter-spacing="1.1" fill="#8494b0">CONTRIBUTIONS</text>
  <text x="158" y="98" font-family="ui-monospace,SFMono-Regular,Menlo,Consolas,monospace" font-size="23" font-weight="700" fill="#a5b4fc">29<animate attributeName="opacity" values="0.25;1" dur="0.5s" begin="0.08s" fill="freeze"/></text>
  <text x="158" y="114" font-family="-apple-system,BlinkMacSystemFont,Segoe UI,Helvetica,Arial,sans-serif" font-size="9.5" letter-spacing="1.1" fill="#8494b0">REPOSITORIES</text>
  <text x="286" y="98" font-family="ui-monospace,SFMono-Regular,Menlo,Consolas,monospace" font-size="23" font-weight="700" fill="#6ee7b7">137<animate attributeName="opacity" values="0.25;1" dur="0.5s" begin="0.16s" fill="freeze"/></text>
  <text x="286" y="114" font-family="-apple-system,BlinkMacSystemFont,Segoe UI,Helvetica,Arial,sans-serif" font-size="9.5" letter-spacing="1.1" fill="#8494b0">ACTIVE DAYS</text>
  <text x="30" y="154" font-family="ui-monospace,SFMono-Regular,Menlo,Consolas,monospace" font-size="23" font-weight="700" fill="#67e8f9">18<animate attributeName="opacity" values="0.25;1" dur="0.5s" begin="0.24s" fill="freeze"/></text>
  <text x="30" y="170" font-family="-apple-system,BlinkMacSystemFont,Segoe UI,Helvetica,Arial,sans-serif" font-size="9.5" letter-spacing="1.1" fill="#8494b0">LONGEST STREAK</text>
  <text x="158" y="154" font-family="ui-monospace,SFMono-Regular,Menlo,Consolas,monospace" font-size="23" font-weight="700" fill="#a5b4fc">102<animate attributeName="opacity" values="0.25;1" dur="0.5s" begin="0.32s" fill="freeze"/></text>
  <text x="158" y="170" font-family="-apple-system,BlinkMacSystemFont,Segoe UI,Helvetica,Arial,sans-serif" font-size="9.5" letter-spacing="1.1" fill="#8494b0">THIS YEAR</text>
  <text x="286" y="154" font-family="ui-monospace,SFMono-Regular,Menlo,Consolas,monospace" font-size="23" font-weight="700" fill="#6ee7b7">5<animate attributeName="opacity" values="0.25;1" dur="0.5s" begin="0.40s" fill="freeze"/></text>
  <text x="286" y="170" font-family="-apple-system,BlinkMacSystemFont,Segoe UI,Helvetica,Arial,sans-serif" font-size="9.5" letter-spacing="1.1" fill="#8494b0">LANGUAGES</text>
  <defs>
    <linearGradient id="sparkfill" x1="0" y1="0" x2="0" y2="1">
      <stop offset="0%" stop-color="#22d3ee" stop-opacity="0.32"/>
      <stop offset="100%" stop-color="#22d3ee" stop-opacity="0"/>
    </linearGradient>
  </defs>
  <text x="30" y="188" font-family="-apple-system,BlinkMacSystemFont,Segoe UI,Helvetica,Arial,sans-serif" font-size="8.5" letter-spacing="1.4" fill="#8494b0">WEEKLY CADENCE · LAST 26 WEEKS</text>
  <path d="M30.0 222.7L44.8 234.0L59.6 234.0L74.4 200.0L89.2 200.0L104.0 211.3L118.8 207.6L133.6 234.0L148.4 234.0L163.2 234.0L178.0 234.0L192.8 234.0L207.6 234.0L222.4 234.0L237.2 234.0L252.0 234.0L266.8 234.0L281.6 234.0L296.4 234.0L311.2 234.0L326.0 234.0L340.8 234.0L355.6 234.0L370.4 234.0L385.2 234.0L400.0 234.0L400.0 234L30 234Z" fill="url(#sparkfill)"><animate attributeName="opacity" values="0;1" dur="1s" begin="0.4s" fill="freeze"/></path>
  <path d="M30.0 222.7L44.8 234.0L59.6 234.0L74.4 200.0L89.2 200.0L104.0 211.3L118.8 207.6L133.6 234.0L148.4 234.0L163.2 234.0L178.0 234.0L192.8 234.0L207.6 234.0L222.4 234.0L237.2 234.0L252.0 234.0L266.8 234.0L281.6 234.0L296.4 234.0L311.2 234.0L326.0 234.0L340.8 234.0L355.6 234.0L370.4 234.0L385.2 234.0L400.0 234.0" stroke="#22d3ee" stroke-width="1.75" stroke-linejoin="round" stroke-linecap="round" stroke-dasharray="416">
    <animate attributeName="stroke-dashoffset" values="416;0" dur="1.3s" begin="0.15s" fill="freeze"/>
  </path>
  <circle cx="400.0" cy="234.0" r="3" fill="#67e8f9"/>
  <circle cx="400.0" cy="234.0" r="3" fill="none" stroke="#67e8f9" stroke-opacity="0.6">
    <animate attributeName="r" values="3;8" dur="1.8s" repeatCount="indefinite"/>
    <animate attributeName="stroke-opacity" values="0.6;0" dur="1.8s" repeatCount="indefinite"/>
  </circle>
</svg>
